<svg width="28" height="30" viewBox="0 0 28 30" fill="none" xmlns="http://www.w3.org/2000/svg">
<path d="M27.4609 12.8493C27.4609 10.7038 25.7793 8.9487 23.6654 8.82021L23.6654 0.810028L23.1712 0.810028L23.1712 8.82021C21.0576 8.94903 19.376 10.7041 19.376 12.8493C19.376 14.9952 21.0576 16.751 23.1712 16.8795L23.1712 28.8153L23.6654 28.8153L23.6654 16.8795C25.7793 16.751 27.4609 14.9952 27.4609 12.8493ZM19.8705 12.8493C19.8705 10.8929 21.4622 9.30157 23.4186 9.30157C25.375 9.30157 26.9671 10.8929 26.9671 12.8493C26.9671 14.8058 25.3754 16.3981 23.4186 16.3981C21.4622 16.3981 19.8705 14.8058 19.8705 12.8493Z" fill="black" stroke="black" stroke-width="0.848462"/>
<path d="M18.2656 21.6833C18.2656 19.5374 16.584 17.782 14.4704 17.6535L14.4704 0.810089L13.9762 0.810089L13.9762 17.6535C11.8626 17.7823 10.181 19.5377 10.181 21.6833C10.181 23.8288 11.8626 25.5843 13.9762 25.7128L13.9762 28.8151L14.4704 28.8151L14.4704 25.7128C16.584 25.5843 18.2656 23.8288 18.2656 21.6833ZM10.6752 21.6833C10.6752 19.7269 12.2669 18.1348 14.2233 18.1348C16.1797 18.1348 17.7714 19.7265 17.7714 21.6833C17.7714 23.6397 16.1797 25.2314 14.2233 25.2314C12.2669 25.2314 10.6752 23.6397 10.6752 21.6833Z" fill="black" stroke="black" stroke-width="0.848462"/>
<path d="M9.07031 9.79453C9.07031 7.64866 7.38867 5.89322 5.2751 5.76473L5.2751 0.810089L4.78089 0.810089L4.78089 5.7644C2.66698 5.89322 0.985342 7.64866 0.985342 9.7942C0.985342 11.9397 2.66698 13.6952 4.78089 13.8237L4.78088 28.8151L5.2751 28.8151L5.2751 13.824C7.389 13.6952 9.07031 11.9397 9.07031 9.79453ZM1.47988 9.79453C1.47988 7.83811 3.07157 6.24609 5.02832 6.24609C6.98474 6.24609 8.57643 7.83778 8.57643 9.79453C8.57643 11.7509 6.98474 13.3426 5.02832 13.3426C3.07157 13.3423 1.47988 11.7506 1.47988 9.79453Z" fill="black" stroke="black" stroke-width="0.848462"/>
</svg>
