<svg width="16" height="16" viewBox="0 0 16 16" fill="none" xmlns="http://www.w3.org/2000/svg">
<path d="M6.6999 13.3933C8.20845 13.3943 9.67268 12.8831 10.8529 11.9432L14.9081 15.9998L15.9998 14.9077L11.9446 10.8511C12.8849 9.662 13.394 8.18887 13.3885 6.67271C13.3831 5.15654 12.8635 3.68709 11.9148 2.50471C10.966 1.32234 9.64427 0.497022 8.16569 0.16377C6.68711 -0.169482 5.13925 0.00905549 3.77528 0.670177C2.41132 1.3313 1.31199 2.43587 0.657124 3.80322C0.00225712 5.17056 -0.169388 6.71974 0.170266 8.19735C0.50992 9.67496 1.34077 10.9935 2.5269 11.9374C3.71304 12.8813 5.18426 13.3945 6.6999 13.3933ZM6.6999 1.54538C7.71836 1.54538 8.71396 1.8475 9.56078 2.41353C10.4076 2.97955 11.0676 3.78407 11.4574 4.72534C11.8471 5.66661 11.9491 6.70236 11.7504 7.7016C11.5517 8.70085 11.0613 9.61872 10.3411 10.3391C9.62095 11.0595 8.7034 11.5502 7.70451 11.7489C6.70561 11.9477 5.67023 11.8457 4.72929 11.4558C3.78835 11.0659 2.98411 10.4056 2.41828 9.55853C1.85245 8.71141 1.55044 7.71546 1.55044 6.69664C1.55044 5.33044 2.09297 4.0202 3.05868 3.05415C4.02439 2.0881 5.33418 1.54538 6.6999 1.54538Z" fill="#F4F5FA"/>
</svg>
